<?xml version="1.0" encoding="UTF-8"?>
<svg id="_标准网格" data-name="标准网格" xmlns="http://www.w3.org/2000/svg" version="1.1" viewBox="0 0 1024 1024">
  <!-- Generator: Adobe Illustrator 29.4.0, SVG Export Plug-In . SVG Version: 2.1.0 Build 152)  -->
  <path d="M237,662h-100c-19.9,0-39-7.9-53-22-14.1-14.1-22-33.1-22-53V137c0-41.4,33.6-75,75-75h450c41.4,0,75,33.6,75,75v100c0,13.8,11.2,25,25,25s25-11.2,25-25v-100c0-69-56-125-125-125H137c-69,0-125,56-125,125v450c0,33.2,13.2,64.9,36.6,88.4,23.4,23.4,55.2,36.6,88.4,36.6h100c13.8,0,25-11.2,25-25s-11.2-25-25-25Z"/>
  <path d="M887,312h-450c-69,0-125,56-125,125v450c0,69,56,125,125,125h450c69,0,125-56,125-125v-450c0-69-56-125-125-125ZM962,887c0,41.4-33.6,75-75,75h-450c-41.4,0-75-33.6-75-75v-450c0-19.9,7.9-39,22-53,14.1-14.1,33.1-22,53-22h450c41.4,0,75,33.6,75,75v450Z"/>
</svg>