<?xml version="1.0" encoding="UTF-8"?>
<svg id="_标准网格" data-name="标准网格" xmlns="http://www.w3.org/2000/svg" version="1.1" viewBox="0 0 1024 1024">
  <!-- Generator: Adobe Illustrator 29.4.0, SVG Export Plug-In . SVG Version: 2.1.0 Build 152)  -->
  <path d="M1007.9,511.9l-117-418.4c-12.3-47.8-54.3-81.2-102.5-81.5H118.4c-58.7,0-106.3,48.9-106.4,109.1v389.8c0,62.1,49.8,116.5,106.4,116.5h106.9c135.1,0,236.9,106.3,236.9,247.2v28.7c0,57.9,51.1,108.6,109.4,108.6h2.9c44.7,0,85.9-30.4,100.1-73.9l7-20.2c21.3-64.6,24.2-134.1,8.2-200.2l-3.7-15.8c-1.2-10.5-6.2-29.9-15-48.7h235.2c32.9,0,63.5-15.9,83.8-43.5,20.6-28,27.3-64.4,18.1-97.7ZM212,576.1h-93.7c-29.4,0-56.4-31-56.4-65.3V121.1c0-31.9,25.3-57.9,56.4-57.9h93.7v512.9Z"/>
</svg>