<?xml version="1.0" standalone="no"?><!DOCTYPE svg PUBLIC "-//W3C//DTD SVG 1.1//EN" "http://www.w3.org/Graphics/SVG/1.1/DTD/svg11.dtd"><svg class="icon" width="200px" height="200.00px" viewBox="0 0 1024 1024" version="1.1" xmlns="http://www.w3.org/2000/svg"><path d="M512 64c25.152 0 49.792 1.92 73.792 5.632 10.048 1.6 24 4.48 41.728 8.64a15.808 15.808 0 0 1 12.544 15.36v33.344a16 16 0 0 1-20.16 15.616 448.896 448.896 0 0 0-39.04-8.96A418.176 418.176 0 0 0 512 128C300.416 128 128 286.016 128 480c0 96.768 41.984 187.2 118.4 254.016l10.816 9.6v127.616l111.616-64.448 13.568 4.416A414.016 414.016 0 0 0 512 832c180.096 0 331.776-114.432 372.928-268.096 2.432-8.896 4.928-21.632 7.488-38.144a16 16 0 0 1 15.808-13.696h32.128a16 16 0 0 1 16.064 18.24 430.272 430.272 0 0 1-5.952 35.84c-42.688 188.224-222.912 330.24-438.464 330.24-46.08 0-91.84-6.528-136-19.584l-158.784 92.032a16 16 0 0 1-24-14.08v-182.4C109.568 694.08 64 590.848 64 480 64 250.816 264.832 64 512 64z m272 64a16 16 0 0 1 16 16V288h144a16 16 0 0 1 16 16v32a16 16 0 0 1-16 16H800v144a16 16 0 0 1-16 16h-32a16 16 0 0 1-16-16V352H592A16 16 0 0 1 576 336v-32a16 16 0 0 1 16-16h144V144a16 16 0 0 1 16-16z" fill="#ffffff" /></svg>