<?xml version="1.0" encoding="UTF-8"?>
<svg id="_标准网格" data-name="标准网格" xmlns="http://www.w3.org/2000/svg" version="1.1" viewBox="0 0 1024 1024">
  <!-- Generator: Adobe Illustrator 29.4.0, SVG Export Plug-In . SVG Version: 2.1.0 Build 152)  -->
  <path d="M989.9,414.4c-20.2-27.6-50.8-43.5-83.8-43.5h-235.2c8.8-18.8,13.8-38.2,15-48.7l3.7-15.8c16-66.2,13.2-135.7-8.2-200.2l-7-20.2c-14.2-43.5-55.4-73.9-100.1-73.9h-2.9c-58.3,0-109.4,50.8-109.4,108.6v28.7c0,140.9-101.8,247.2-236.9,247.2h-106.9c-56.5,0-106.4,54.5-106.4,116.5v389.8c0,60.2,47.6,109,106.4,109.1h670.1c48.2-.3,90.2-33.7,102.5-81.5l117-418.4c9.3-33.3,2.5-69.7-18.1-97.7ZM212,960.8h-93.7c-31.1,0-56.4-26-56.4-57.9v-389.8c0-34.2,27-65.3,56.4-65.3h93.7v512.9Z"/>
</svg>