<?xml version="1.0" encoding="UTF-8"?>
<svg id="_标准网格" data-name="标准网格" xmlns="http://www.w3.org/2000/svg" version="1.1" viewBox="0 0 1024 1024">
  <!-- Generator: Adobe Illustrator 29.4.0, SVG Export Plug-In . SVG Version: 2.1.0 Build 152)  -->
  <path d="M989.9,414.4c-20.2-27.6-50.8-43.5-83.8-43.5h-235.2c8.8-18.8,13.8-38.2,15-48.7l3.7-15.8c16-66.2,13.2-135.7-8.2-200.2l-7-20.2c-14.2-43.5-55.4-73.9-100.1-73.9h-2.9c-58.3,0-109.4,50.8-109.4,108.6v28.7c0,140.9-101.8,247.2-236.9,247.2h-106.9c-56.5,0-106.4,54.5-106.4,116.5v389.8c0,60.2,47.6,109,106.4,109.1h670.1c48.2-.3,90.2-33.7,102.5-81.5l117-418.4c9.3-33.3,2.5-69.7-18.1-97.7ZM61.9,902.9v-389.8c0-34.2,27-65.3,56.4-65.3h93.7v512.9h-93.7c-31.1,0-56.4-26-56.4-57.9ZM959.9,497.9l-116.9,418.9c-6.6,25.6-28.9,43.5-54.6,44H262V447.9c0-.7,0-1.5-.1-2.2,145-17.6,250.3-139.1,250.3-296.3v-28.7c0-29.4,28.8-57.4,59.5-57.4h2.9c23.9.6,45,16.3,52.9,39.5l7.2,20.2c18,55.3,20.3,114.7,6.5,171.3l-4.2,18-.7,5.3c-1.1,12.8-17.1,49.3-24.2,53.4v51.4h294.2c17.3,0,33.6,8.6,43.8,23,11.3,14.9,15,34.5,9.9,52.6Z"/>
</svg>