<?xml version="1.0" encoding="UTF-8"?>
<svg id="_标准网格" data-name="标准网格" xmlns="http://www.w3.org/2000/svg" version="1.1" viewBox="0 0 1024 1024">
  <!-- Generator: Adobe Illustrator 29.4.0, SVG Export Plug-In . SVG Version: 2.1.0 Build 152)  -->
  <path d="M413.6,12H85.8C45.2,12,12,46.3,12,88.2v322.2c0,41.9,33.3,76.2,73.8,76.2h327.8c40.7,0,73.8-34.3,73.8-76.2V88.2c0-41.9-33.3-76.2-73.8-76.2ZM438.2,410.4c0,13.8-11.3,25.4-24.6,25.4H85.8c-13.4,0-24.6-11.7-24.6-25.4V88.2c0-13.8,11.3-25.4,24.6-25.4h327.8c13.4,0,24.6,11.7,24.6,25.4v322.2Z"/>
  <path d="M413.6,537.3H85.8c-40.6,0-73.8,34.3-73.8,76.2v322.3c0,41.9,33.3,76.2,73.8,76.2h327.8c40.7,0,73.8-34.3,73.8-76.2v-322.2c0-41.9-33.3-76.3-73.8-76.3ZM438.2,935.8c0,13.8-11.3,25.4-24.6,25.4H85.8c-13.4,0-24.6-11.7-24.6-25.4v-322.2c0-13.8,11.3-25.4,24.6-25.4h327.8c13.4,0,24.6,11.7,24.6,25.4v322.2Z"/>
  <path d="M938.2,12h-327.8c-40.6,0-73.8,34.3-73.8,76.2v322.2c0,41.9,33.3,76.2,73.8,76.2h327.8c40.6,0,73.8-34.3,73.8-76.2V88.2c0-41.9-33.3-76.2-73.8-76.2ZM962.8,410.4c0,13.8-11.3,25.4-24.6,25.4h-327.8c-13.4,0-24.6-11.7-24.6-25.4V88.2c0-13.8,11.3-25.4,24.6-25.4h327.8c13.4,0,24.6,11.7,24.6,25.4v322.2Z"/>
  <path d="M630.8,605.7c-13.6,0-24.6,11.5-24.6,25.4v50.8c0,14,11.1,25.4,24.6,25.4s24.6-11.5,24.6-25.4v-50.8c0-14-11-25.4-24.6-25.4Z"/>
  <path d="M775.5,605.7c-13.6,0-24.6,11.5-24.6,25.4v149.8c0,14,11.1,25.4,24.6,25.4s24.6-11.5,24.6-25.4v-149.8c0-14-11.1-25.4-24.6-25.4Z"/>
  <path d="M917.8,605.7c-13.6,0-24.6,11.5-24.6,25.4v83.7c0,14,11.1,25.4,24.6,25.4s24.6-11.5,24.6-25.4v-83.7c0-14-11.1-25.4-24.6-25.4Z"/>
  <path d="M917.8,807.1c-13.6,0-24.6,11.5-24.6,25.4v116.1c0,14,11.1,25.4,24.6,25.4s24.6-11.5,24.6-25.4v-116.1c0-13.9-11.1-25.4-24.6-25.4Z"/>
  <path d="M630.8,774.7c-13.6,0-24.6,11.5-24.6,25.4v148.6c0,14,11.1,25.4,24.6,25.4s24.6-11.5,24.6-25.4v-148.6c0-13.9-11-25.4-24.6-25.4Z"/>
  <path d="M775.5,842.3c-13.6,0-24.6,11.5-24.6,25.4v80.9c0,14,11.1,25.4,24.6,25.4s24.6-11.5,24.6-25.4v-80.9c0-14-11.1-25.4-24.6-25.4Z"/>
</svg>