<?xml version="1.0" encoding="UTF-8"?>
<svg id="_标准网格" data-name="标准网格" xmlns="http://www.w3.org/2000/svg" version="1.1" viewBox="0 0 1024 1024">
  <!-- Generator: Adobe Illustrator 29.4.0, SVG Export Plug-In . SVG Version: 2.1.0 Build 152)  -->
  <path d="M990.2,539.5c-13.4-1.5-25.5,8.3-26.9,21.7-1.1,10.1-2.5,20.2-4.3,30.2-37.9,214.5-225.2,373.1-445.5,373.1S60.9,761.9,60.9,512,263.5,59.5,513.4,59.5s342.1,107.2,414,269.6h-206.1c-13.5,0-24.5,11-24.5,24.5s10.9,24.5,24.5,24.5h253.8c13.5,0,24.5-11,24.5-24.5V84c0-13.5-10.9-24.5-24.5-24.5s-24.5,10.9-24.5,24.5v182.4C863.1,110.7,697.4,10.6,513.4,10.6,236.5,10.6,12,235.1,12,512s224.5,501.4,501.4,501.4,451.6-175.7,493.7-413.5c2-11.1,3.5-22.2,4.8-33.4,1.5-13.4-8.3-25.5-21.7-26.9Z"/>
</svg>