<?xml version="1.0" encoding="UTF-8"?>
<svg id="_标准网格" data-name="标准网格" xmlns="http://www.w3.org/2000/svg" version="1.1" viewBox="0 0 1024 1024">
  <!-- Generator: Adobe Illustrator 29.4.0, SVG Export Plug-In . SVG Version: 2.1.0 Build 152)  -->
  <path d="M932.8,434.2C924.6,199.6,739.4,12,512,12S99.4,199.6,91.2,434.2c-48.1,21.7-79.2,71-79.2,125.6v109.8c0,75.7,58.9,137,131.6,137s131.6-61.3,131.6-137v-109.8c-.1-75.2-58.4-136.3-130.7-136.9,13.5-199,172.9-356.2,367.5-356.2s354,157.1,367.5,356.2c-72.3.5-130.6,61.6-130.7,136.9v109.8c0,37.7,15,73.8,41.4,99.6h0c-41.6,43.1-91.9,76-147.3,96.3-16.3-27.3-45.3-45.3-78.6-45.3h-78.4c-51.2,0-92.4,42.8-92.4,95.9s41.3,95.9,92.3,95.9h78.5c50.1.2,91.1-41.3,92.3-93.4,68.3-24.3,129.9-65.5,179.6-120,40.3,14.9,85,8.6,119.9-17.1,34.9-25.6,55.7-67.4,55.8-111.9v-109.8c0-54.5-31.2-103.9-79.2-125.6ZM222.5,559.8v109.8c0,45.4-35.3,82.2-78.9,82.2s-78.9-36.8-78.9-82.2v-109.8c0-45.4,35.3-82.2,78.9-82.2s78.9,36.8,78.9,82.2ZM959.4,669.6c0,45.4-35.3,82.2-78.9,82.2s-78.9-36.8-78.9-82.2v-109.8c0-45.4,35.3-82.2,78.9-82.2s78.9,36.8,78.9,82.2v109.8Z"/>
</svg>